<svg xmlns="http://www.w3.org/2000/svg" xmlns:svg="http://www.w3.org/2000/svg" xmlns:xlink="http://www.w3.org/1999/xlink" id="svg2" width="86" height="86" version="1.1"><defs id="defs4"><linearGradient id="linearGradient3789-6"><stop id="stop3791-0" offset="0" stop-color="#1b2d43" stop-opacity=".933"/><stop id="stop3793-4" offset="1" stop-color="#1b2d43" stop-opacity="1"/></linearGradient><linearGradient id="linearGradient3353" x1="288.494" x2="288.494" y1="55.888" y2="339.222" gradientUnits="userSpaceOnUse" xlink:href="#SVGID_1_"/><linearGradient id="linearGradient3355" x1="251.211" x2="251.211" y1="55.888" y2="339.222" gradientUnits="userSpaceOnUse" xlink:href="#SVGID_2_"/><linearGradient id="linearGradient3357" x1="293.225" x2="293.225" y1="55.888" y2="339.222" gradientUnits="userSpaceOnUse" xlink:href="#SVGID_3_"/><linearGradient id="linearGradient3359" x1="375.334" x2="375.334" y1="55.888" y2="339.222" gradientUnits="userSpaceOnUse" xlink:href="#SVGID_4_"/><linearGradient id="linearGradient3361" x1="334.494" x2="334.494" y1="55.888" y2="339.222" gradientUnits="userSpaceOnUse" xlink:href="#SVGID_5_"/><linearGradient id="linearGradient3363" x1="458.427" x2="458.427" y1="55.887" y2="339.224" gradientUnits="userSpaceOnUse" xlink:href="#SVGID_6_"/><linearGradient id="linearGradient3365" x1="413.163" x2="413.163" y1="55.888" y2="339.221" gradientUnits="userSpaceOnUse" xlink:href="#SVGID_7_"/><linearGradient id="linearGradient3367" x1="290.762" x2="290.762" y1="55.887" y2="339.224" gradientUnits="userSpaceOnUse" xlink:href="#SVGID_8_"/><linearGradient id="linearGradient3369" x1="346.773" x2="346.773" y1="55.888" y2="339.221" gradientUnits="userSpaceOnUse" xlink:href="#SVGID_9_"/><linearGradient id="SVGID_1_" x1="288.494" x2="288.494" y1="55.888" y2="339.222" gradientUnits="userSpaceOnUse"><stop id="stop261" offset="0" stop-color="#BED5E1"/><stop id="stop263" offset="1" stop-color="#567B8F"/></linearGradient><linearGradient id="SVGID_2_" x1="251.211" x2="251.211" y1="55.888" y2="339.222" gradientUnits="userSpaceOnUse"><stop id="stop268" offset="0" stop-color="#BED5E1"/><stop id="stop270" offset="1" stop-color="#567B8F"/></linearGradient><linearGradient id="SVGID_3_" x1="293.225" x2="293.225" y1="55.888" y2="339.222" gradientUnits="userSpaceOnUse"><stop id="stop275" offset="0" stop-color="#BED5E1"/><stop id="stop277" offset="1" stop-color="#567B8F"/></linearGradient><linearGradient id="SVGID_4_" x1="375.334" x2="375.334" y1="55.888" y2="339.222" gradientUnits="userSpaceOnUse"><stop id="stop282" offset="0" stop-color="#BED5E1"/><stop id="stop284" offset="1" stop-color="#567B8F"/></linearGradient><linearGradient id="SVGID_5_" x1="334.494" x2="334.494" y1="55.888" y2="339.222" gradientUnits="userSpaceOnUse"><stop id="stop289" offset="0" stop-color="#BED5E1"/><stop id="stop291" offset="1" stop-color="#567B8F"/></linearGradient><linearGradient id="SVGID_6_" x1="458.427" x2="458.427" y1="55.887" y2="339.224" gradientUnits="userSpaceOnUse"><stop id="stop296" offset="0" stop-color="#BED5E1"/><stop id="stop298" offset="1" stop-color="#567B8F"/></linearGradient><linearGradient id="SVGID_7_" x1="413.163" x2="413.163" y1="55.888" y2="339.221" gradientUnits="userSpaceOnUse"><stop id="stop303" offset="0" stop-color="#BED5E1"/><stop id="stop305" offset="1" stop-color="#567B8F"/></linearGradient><linearGradient id="SVGID_8_" x1="290.762" x2="290.762" y1="55.887" y2="339.224" gradientUnits="userSpaceOnUse"><stop id="stop310" offset="0" stop-color="#BED5E1"/><stop id="stop312" offset="1" stop-color="#567B8F"/></linearGradient><linearGradient id="SVGID_9_" x1="346.773" x2="346.773" y1="55.888" y2="339.221" gradientUnits="userSpaceOnUse"><stop id="stop317" offset="0" stop-color="#BED5E1"/><stop id="stop319" offset="1" stop-color="#567B8F"/></linearGradient><filter id="filter3843-4-9" width="2.151" height="2.254" x="-.575" y="-.627" color-interpolation-filters="sRGB"><feGaussianBlur id="feGaussianBlur3845-7-1" stdDeviation="9.801"/></filter><radialGradient id="radialGradient936" cx="66.48" cy="46.683" r="65" fx="66.48" fy="46.683" gradientTransform="matrix(1,0,0,0.84615385,0,7.1820259)" gradientUnits="userSpaceOnUse" xlink:href="#SVGID_9_"/><radialGradient id="radialGradient938" cx="66.48" cy="46.683" r="65" fx="66.48" fy="46.683" gradientTransform="matrix(1,0,0,0.84615385,0,7.1820259)" gradientUnits="userSpaceOnUse" xlink:href="#SVGID_9_"/><radialGradient id="radialGradient940" cx="66.48" cy="46.683" r="65" fx="66.48" fy="46.683" gradientTransform="matrix(1,0,0,0.84615385,0,7.1820259)" gradientUnits="userSpaceOnUse" xlink:href="#SVGID_9_"/><radialGradient id="radialGradient942" cx="66.48" cy="46.683" r="65" fx="66.48" fy="46.683" gradientTransform="matrix(1,0,0,0.84615385,0,7.1820259)" gradientUnits="userSpaceOnUse" xlink:href="#SVGID_9_"/></defs><metadata id="metadata7"/><g id="layer2" display="inline" transform="translate(0,-4)"><path id="path11" fill="#0082c9" fill-opacity="1" d="M 84.277,4.3 H 43 C 19.417,4.3 0.3,23.418 0.3,47 v 41.277 c 0,0.786 0.637,1.423 1.423,1.423 H 43 C 66.583,89.7 85.7,70.582 85.7,47 V 5.723 C 85.7,4.937 85.063,4.3 84.277,4.3 z"/><path id="path4670" fill="#1b2b43" fill-opacity="0" d="m 76.670771,60.999268 -3.24577,-3.249332 0.55053,-0.463242 c 0.302792,-0.254782 0.763412,-0.898356 1.023601,-1.430162 1.562106,-3.192829 -0.796185,-6.971801 -4.350795,-6.971801 l -0.649637,0 -0.118106,1.281631 c -0.06496,0.704898 -0.24754,1.744659 -0.405736,2.310583 -0.277078,0.991198 -0.299212,1.017143 -0.603268,0.707107 -0.291036,-0.296762 -0.295836,-0.397178 -0.06159,-1.288448 0.799082,-3.040371 -0.209081,-6.531782 -2.553967,-8.844742 -1.384423,-1.365574 -2.507466,-2.003025 -4.366547,-2.478498 -1.621997,-0.414836 -2.564411,-0.433732 -4.213057,-0.08447 -1.17771,0.249496 -1.693859,0.168631 -1.693859,-0.265372 0,-0.149846 2.083409,-0.706953 2.643788,-0.706953 0.469204,0 0.471788,-0.489296 0.01046,-1.982867 -1.059527,-3.43035 -3.97056,-5.74693 -7.651534,-6.089039 l -1.21896,-0.113291 0.03023,0.866423 c 0.01664,0.476533 0.02316,1.097515 0.01453,1.37996 -0.01536,0.502153 -0.02354,0.506444 -0.369261,0.193572 -0.21361,-0.193314 -0.353554,-0.544467 -0.353554,-0.887154 0,-2.001871 -1.056769,-4.492958 -2.531698,-5.967888 -1.513775,-1.513776 -4.033251,-2.602511 -6.022547,-2.602511 -0.491949,0 -1.527248,-0.976715 -9.654396,-9.108077 C 23.631961,7.953261 21.830333,6.0616938 22.041445,5.9252906 22.772646,5.4528494 25.151432,4.2898712 26.704761,3.6454154 30.325692,2.1431383 34.579495,1.0424413 38.342128,0.63417676 39.452658,0.51367873 47.978089,0.44791647 62.488944,0.44791647 l 22.430208,0 0.336758,0.37218361 c 0.327442,0.36188762 0.336758,0.99395512 0.336758,22.84838792 0,17.700679 -0.04997,22.851802 -0.235164,24.243972 -0.715007,5.374838 -2.330142,10.529919 -4.66379,14.885586 l -0.777171,1.450555 -3.245772,-3.249333 z" transform="translate(0,4)"/><path id="path4672" fill="#1b2b43" fill-opacity="0" d="m 57.523362,68.00966 -9.837828,-9.844152 0.922345,-0.40096 c 1.308123,-0.568665 3.156429,-2.006878 4.095781,-3.187029 1.848475,-2.322324 2.75046,-4.883843 2.745968,-7.798191 -0.0033,-2.115759 -0.339158,-3.572903 -1.265394,-5.489371 -1.020712,-2.111947 -3.139713,-4.233384 -5.272731,-5.278791 -0.826431,-0.405039 -2.019673,-0.869478 -2.65165,-1.032084 -1.512005,-0.389038 -4.31129,-0.3801 -5.833631,0.01863 -3.393397,0.888789 -6.482681,3.354248 -7.898558,6.303581 -0.274085,0.570931 -0.548257,1.039101 -0.609273,1.040379 -0.06102,0.0012 -0.204752,-0.110717 -0.319413,-0.248877 -0.164365,-0.198047 -0.10804,-0.45053 0.266191,-1.193243 0.261067,-0.518123 0.614764,-1.140917 0.785993,-1.383985 0.306172,-0.434624 0.299781,-0.460966 -0.385918,-1.59099 -0.383485,-0.631976 -0.825248,-1.606458 -0.981697,-2.165514 l -0.284455,-1.016466 -1.082925,0 c -1.218328,0 -2.781569,0.359799 -3.783048,0.870717 l -0.670514,0.34207 -8.692131,-8.693928 -8.6921309,-8.693927 1.3558697,-1.767767 C 10.981078,14.782976 14.438584,11.257827 16.358517,9.7399889 22.556682,4.8399156 29.87552,1.7406728 37.658026,0.72047527 39.435383,0.48748422 42.938235,0.44791647 61.787101,0.44791647 l 22.049877,0 0.930878,0.94258723 0.93088,0.9425872 -0.06267,22.2593541 c -0.06098,21.65712 -0.07278,22.32153 -0.436325,24.557451 -1.822968,11.211886 -7.158702,20.377703 -15.911692,27.333385 -0.719209,0.571528 -1.446974,1.113705 -1.617254,1.204836 -0.258161,0.138165 -1.944164,-1.469918 -10.147428,-9.678457 z m 4.250461,-9.13803 c 3.408363,-0.803602 6.220472,-3.615711 7.024074,-7.024073 0.515769,-2.187561 0.284992,-4.135916 -0.748769,-6.321583 -1.632996,-3.452613 -5.690472,-5.682114 -9.414447,-5.173048 -1.790276,0.24473 -3.423387,0.868421 -3.294972,1.258362 0.805617,2.446342 0.871037,2.818837 0.889315,5.063735 0.01391,1.709688 -0.06232,2.592301 -0.297782,3.447145 -0.442661,1.607107 -1.399475,3.467666 -2.460304,4.784142 l -0.90202,1.119394 0.833611,0.754718 c 2.158957,1.954629 5.456627,2.77841 8.371294,2.091208 z m 11.028991,-0.856764 c 1.651059,-0.805474 2.625194,-2.397325 2.625194,-4.289879 0,-2.610612 -1.735746,-4.499262 -4.389963,-4.776681 l -1.035558,-0.108239 -0.123035,1.475308 c -0.193148,2.316002 -0.774747,3.732873 -2.516363,6.13028 -0.272236,0.374745 -0.270813,0.424492 0.02139,0.747369 0.17217,0.190245 0.719943,0.551662 1.217274,0.80315 0.783158,0.39602 1.081773,0.448959 2.230065,0.395347 0.795712,-0.03715 1.58379,-0.187751 1.971,-0.376655 z M 56.336125,40.045897 c 0.826431,-0.28908 1.770169,-0.526664 2.097197,-0.527965 l 0.594597,-0.0024 -0.125485,-0.839689 c -0.398571,-2.667052 -2.232101,-5.092614 -4.838954,-6.40141 -0.824946,-0.414172 -2.764413,-0.882533 -3.67535,-0.88756 l -0.556306,-0.0031 0.01085,1.458408 c 0.006,0.802124 -0.04613,1.706965 -0.115782,2.010757 -0.119041,0.519243 -0.07608,0.581972 0.716703,1.046577 1.081343,0.633709 3.214972,2.765231 3.846286,3.842487 0.268867,0.458788 0.501178,0.833095 0.516246,0.831794 0.01506,-0.0013 0.703563,-0.238885 1.529994,-0.527964 z M 34.794753,37.142055 c 1.487164,-1.376886 3.842384,-2.590682 5.878366,-3.0295 2.006933,-0.432555 4.837586,-0.285454 6.714582,0.348941 0.766157,0.258948 1.426278,0.437549 1.466939,0.39689 0.04066,-0.04066 0.11801,-0.620304 0.171894,-1.288101 0.193252,-2.395068 -0.668748,-4.687006 -2.467179,-6.559884 -4.202884,-4.376868 -11.392403,-3.176195 -14.026041,2.342392 -1.036285,2.171454 -1.095075,5.053497 -0.145479,7.131499 0.501677,1.097815 0.919817,1.793838 1.077661,1.793838 0.0562,0 0.654371,-0.511233 1.329257,-1.136075 z m -6.678219,-3.022396 c 0.596402,-0.140647 1.462228,-0.256897 1.924057,-0.258334 l 0.839689,-0.0026 0,-1.023519 c 0,-0.562937 0.128904,-1.497644 0.286454,-2.077126 0.520157,-1.91318 0.546274,-1.773064 -0.389967,-2.092073 -2.30181,-0.784305 -4.532652,0.0043 -5.609642,1.98313 -0.642595,1.180658 -0.773116,2.344827 -0.404898,3.611451 l 0.288162,0.991242 0.990889,-0.438219 c 0.544988,-0.241021 1.478854,-0.553293 2.075256,-0.693939 z" transform="translate(0,4)"/><g id="g4257" fill="url(#radialGradient936)" fill-opacity="1" opacity=".9" transform="matrix(-0.6153846,0,0,0.54545455,82.910924,21.290601)"><rect id="rect4259" width="130" height="110" x="1.48" y="-8.317" fill="url(#radialGradient938)" fill-opacity="1" stroke="none" opacity=".01"/><g id="g4261" fill="url(#radialGradient942)" fill-opacity="1" transform="matrix(1.0322865,0,0,1.0751207,3.1551607,-6.78369)"><path id="path4263" fill="url(#radialGradient940)" fill-opacity="1" stroke="#fff" stroke-dasharray="none" stroke-miterlimit="4" stroke-opacity="1" stroke-width="5.171" d="m 47.080078,-0.453125 c -16.617105,0.00667 -30.977423,13.276901 -31.792969,30.027344 -0.379636,1.6319 -0.472033,2.976328 -0.396484,3.986328 C -3.8129873,43.64501 -6.1666072,73.103876 13.005859,84.3125 c 6.234577,3.94845 12.999309,4.4857 18.783203,4.384766 5.820242,-0.101569 11.010779,-0.702647 15.009766,-0.273438 a 6.8701819,6.8701819 0 0 0 0.861328,0.03906 c 16.809954,-0.31387 34.277199,0.649004 51.84375,-0.482422 a 6.8701819,6.8701819 0 0 0 1.554684,-0.283203 c 14.66488,-4.455218 25.2455,-20.111025 20.36719,-35.886719 -2.02417,-7.465205 -6.94035,-14.64082 -14.39062,-18.328125 C 105.89375,18.628761 91.220936,6.4614508 75.875,10.970703 l 1.722656,-0.273437 c -1.217859,0.03811 -2.227467,0.216381 -3.09375,0.451172 C 67.707108,2.962823 57.177707,-0.83036158 47.080078,-0.453125 Z" transform="matrix(0.96709183,0,0,0.96709183,2.193535,2.0254204)"/></g></g><g id="g4530" opacity=".5" transform="matrix(-0.13738691,0,0,0.14874466,80.785215,27.110137)"><path id="path4532" fill="none" stroke="#000" stroke-dasharray="none" stroke-linecap="round" stroke-linejoin="miter" stroke-miterlimit="4" stroke-opacity="1" stroke-width="10.954" d="m 285.08305,161.73006 c 10.03588,25.46628 57.3716,26.47501 70.01057,-1.12017"/><g id="g4534"><ellipse id="path4536" cx="229.915" cy="80.238" fill="#000" fill-opacity="1" stroke="none" rx="20.443" ry="18.763" transform="matrix(2.0958904,0,0,2.0958904,-229.55796,-67.369779)"/><ellipse id="path4538" cx="229.915" cy="80.238" fill="#fff" fill-opacity="1" stroke="none" rx="20.443" ry="18.763" transform="matrix(0.91065216,0,0,0.91065216,57.361665,16.694341)"/><ellipse id="path4540" cx="229.915" cy="80.238" fill="#fff" fill-opacity="1" stroke="none" rx="20.443" ry="18.763" transform="matrix(0.48395004,0,0,0.48395004,136.66213,77.651065)"/><ellipse id="path4542" cx="229.915" cy="80.238" fill="#fff" fill-opacity="1" stroke="none" filter="url(#filter3843-4-9)" opacity=".5" rx="20.443" ry="18.763" transform="matrix(0.48395004,0,0,0.48395004,120.97977,51.32709)"/></g><g id="g4544" transform="translate(141.7014)"><ellipse id="path4546" cx="229.915" cy="80.238" fill="#000" fill-opacity="1" stroke="none" rx="20.443" ry="18.763" transform="matrix(2.0958904,0,0,2.0958904,-229.55796,-67.369779)"/><ellipse id="path4548" cx="229.915" cy="80.238" fill="#fff" fill-opacity="1" stroke="none" rx="20.443" ry="18.763" transform="matrix(0.91065216,0,0,0.91065216,57.361665,16.694341)"/><ellipse id="path4550" cx="229.915" cy="80.238" fill="#fff" fill-opacity="1" stroke="none" rx="20.443" ry="18.763" transform="matrix(0.48395004,0,0,0.48395004,136.66213,77.651065)"/><ellipse id="path4552" cx="229.915" cy="80.238" fill="#fff" fill-opacity="1" stroke="none" filter="url(#filter3843-4-9)" opacity=".5" rx="20.443" ry="18.763" transform="matrix(0.48395004,0,0,0.48395004,120.97977,51.32709)"/></g></g></g></svg>